<svg width="59" height="44" viewBox="0 0 59 44" fill="none" xmlns="http://www.w3.org/2000/svg">
<path fill-rule="evenodd" clip-rule="evenodd" d="M35.3333 10.125C35.3333 11.3185 34.7714 12.4631 33.7712 13.307C32.771 14.1509 31.4145 14.625 30 14.625C28.5855 14.625 27.229 14.1509 26.2288 13.307C25.2286 12.4631 24.6667 11.3185 24.6667 10.125C24.6667 8.93153 25.2286 7.78693 26.2288 6.94302C27.229 6.09911 28.5855 5.625 30 5.625C31.4145 5.625 32.771 6.09911 33.7712 6.94302C34.7714 7.78693 35.3333 8.93153 35.3333 10.125V10.125ZM32.6667 10.125C32.6667 10.7217 32.3857 11.294 31.8856 11.716C31.3855 12.1379 30.7072 12.375 30 12.375C29.2928 12.375 28.6145 12.1379 28.1144 11.716C27.6143 11.294 27.3333 10.7217 27.3333 10.125C27.3333 9.52826 27.6143 8.95597 28.1144 8.53401C28.6145 8.11205 29.2928 7.875 30 7.875C30.7072 7.875 31.3855 8.11205 31.8856 8.53401C32.3857 8.95597 32.6667 9.52826 32.6667 10.125V10.125Z" fill="#77817D"/>
<path fill-rule="evenodd" clip-rule="evenodd" d="M30 1.125C21.9 1.125 15.3333 6.66562 15.3333 13.5C15.3333 20.3344 21.9 25.875 30 25.875C38.1 25.875 44.6667 20.3344 44.6667 13.5C44.6667 6.66562 38.1 1.125 30 1.125ZM18 13.5C18 15.8512 18.9507 18.0157 20.544 19.7347C21.663 18.4949 23.1065 17.4901 24.7619 16.7988C26.4173 16.1076 28.2397 15.7486 30.0867 15.75C31.9098 15.7485 33.7092 16.0982 35.3479 16.7724C36.9866 17.4465 38.4213 18.4274 39.5427 19.6402C40.6979 18.3618 41.4758 16.8696 41.8119 15.2872C42.1479 13.7047 42.0326 12.0775 41.4753 10.5401C40.9181 9.00274 39.935 7.59943 38.6073 6.44629C37.2797 5.29315 35.6457 4.42334 33.8405 3.90882C32.0354 3.3943 30.1109 3.24987 28.2265 3.48747C26.342 3.72507 24.5517 4.33788 23.0037 5.27518C21.4557 6.21249 20.1944 7.44735 19.3243 8.87759C18.4542 10.3078 18.0002 11.8923 18 13.5V13.5ZM30 23.625C27.2453 23.6285 24.5737 22.8289 22.4373 21.3615C23.2972 20.3228 24.4418 19.4748 25.7736 18.8895C27.1054 18.3043 28.5851 17.9991 30.0867 18C31.5695 17.999 33.0313 18.2965 34.3506 18.8678C35.6698 19.4392 36.8085 20.2678 37.672 21.285C35.5191 22.8 32.8034 23.6283 30 23.625V23.625Z" fill="#77817D"/>
<path d="M3.708 32.48H4.416L7.956 41H7.068L5.964 38.336H2.136L1.044 41H0.144L3.708 32.48ZM5.772 37.676L4.056 33.464L2.316 37.676H5.772ZM8.29697 36.68C8.29697 36.168 8.38497 35.66 8.56097 35.156C8.74497 34.652 9.00897 34.196 9.35297 33.788C9.69697 33.372 10.121 33.044 10.625 32.804C11.129 32.556 11.701 32.432 12.341 32.432C13.093 32.432 13.741 32.608 14.285 32.96C14.829 33.304 15.229 33.748 15.485 34.292L14.825 34.7C14.641 34.324 14.409 34.028 14.129 33.812C13.849 33.588 13.549 33.428 13.229 33.332C12.917 33.236 12.605 33.188 12.293 33.188C11.781 33.188 11.329 33.292 10.937 33.5C10.545 33.7 10.213 33.972 9.94097 34.316C9.67697 34.66 9.47697 35.04 9.34097 35.456C9.20497 35.872 9.13697 36.296 9.13697 36.728C9.13697 37.2 9.21697 37.652 9.37697 38.084C9.53697 38.508 9.76097 38.888 10.049 39.224C10.337 39.56 10.673 39.828 11.057 40.028C11.449 40.22 11.873 40.316 12.329 40.316C12.649 40.316 12.977 40.26 13.313 40.148C13.649 40.036 13.961 39.864 14.249 39.632C14.537 39.4 14.773 39.1 14.957 38.732L15.653 39.092C15.469 39.516 15.193 39.876 14.825 40.172C14.465 40.468 14.057 40.692 13.601 40.844C13.153 40.996 12.713 41.072 12.281 41.072C11.697 41.072 11.161 40.948 10.673 40.7C10.185 40.444 9.76097 40.108 9.40097 39.692C9.04897 39.268 8.77697 38.796 8.58497 38.276C8.39297 37.748 8.29697 37.216 8.29697 36.68ZM16.4298 36.68C16.4298 36.168 16.5178 35.66 16.6938 35.156C16.8778 34.652 17.1418 34.196 17.4858 33.788C17.8298 33.372 18.2538 33.044 18.7578 32.804C19.2618 32.556 19.8338 32.432 20.4738 32.432C21.2258 32.432 21.8738 32.608 22.4178 32.96C22.9618 33.304 23.3618 33.748 23.6178 34.292L22.9578 34.7C22.7738 34.324 22.5418 34.028 22.2618 33.812C21.9818 33.588 21.6818 33.428 21.3618 33.332C21.0498 33.236 20.7378 33.188 20.4258 33.188C19.9138 33.188 19.4618 33.292 19.0698 33.5C18.6778 33.7 18.3458 33.972 18.0738 34.316C17.8098 34.66 17.6098 35.04 17.4738 35.456C17.3378 35.872 17.2698 36.296 17.2698 36.728C17.2698 37.2 17.3498 37.652 17.5098 38.084C17.6698 38.508 17.8938 38.888 18.1818 39.224C18.4698 39.56 18.8058 39.828 19.1898 40.028C19.5818 40.22 20.0058 40.316 20.4618 40.316C20.7818 40.316 21.1098 40.26 21.4458 40.148C21.7818 40.036 22.0938 39.864 22.3818 39.632C22.6698 39.4 22.9058 39.1 23.0898 38.732L23.7858 39.092C23.6018 39.516 23.3258 39.876 22.9578 40.172C22.5978 40.468 22.1898 40.692 21.7338 40.844C21.2858 40.996 20.8458 41.072 20.4138 41.072C19.8298 41.072 19.2938 40.948 18.8058 40.7C18.3178 40.444 17.8938 40.108 17.5338 39.692C17.1818 39.268 16.9098 38.796 16.7178 38.276C16.5258 37.748 16.4298 37.216 16.4298 36.68ZM28.5586 41.06C27.9586 41.06 27.4146 40.94 26.9266 40.7C26.4386 40.452 26.0186 40.124 25.6666 39.716C25.3146 39.308 25.0426 38.848 24.8506 38.336C24.6586 37.816 24.5626 37.284 24.5626 36.74C24.5626 36.172 24.6626 35.632 24.8626 35.12C25.0626 34.6 25.3426 34.14 25.7026 33.74C26.0706 33.332 26.4986 33.012 26.9866 32.78C27.4746 32.54 28.0026 32.42 28.5706 32.42C29.1626 32.42 29.7026 32.544 30.1906 32.792C30.6786 33.04 31.0986 33.372 31.4506 33.788C31.8106 34.204 32.0826 34.668 32.2666 35.18C32.4586 35.692 32.5546 36.216 32.5546 36.752C32.5546 37.32 32.4546 37.864 32.2546 38.384C32.0546 38.896 31.7746 39.356 31.4146 39.764C31.0546 40.164 30.6306 40.48 30.1426 40.712C29.6546 40.944 29.1266 41.06 28.5586 41.06ZM25.4026 36.74C25.4026 37.204 25.4786 37.648 25.6306 38.072C25.7826 38.496 25.9986 38.876 26.2786 39.212C26.5586 39.548 26.8906 39.816 27.2746 40.016C27.6666 40.208 28.0946 40.304 28.5586 40.304C29.0466 40.304 29.4826 40.204 29.8666 40.004C30.2586 39.796 30.5906 39.52 30.8626 39.176C31.1426 38.832 31.3546 38.452 31.4986 38.036C31.6426 37.612 31.7146 37.18 31.7146 36.74C31.7146 36.276 31.6386 35.832 31.4866 35.408C31.3346 34.984 31.1146 34.604 30.8266 34.268C30.5466 33.932 30.2146 33.668 29.8306 33.476C29.4466 33.284 29.0226 33.188 28.5586 33.188C28.0786 33.188 27.6426 33.288 27.2506 33.488C26.8666 33.688 26.5346 33.96 26.2546 34.304C25.9826 34.64 25.7706 35.02 25.6186 35.444C25.4746 35.868 25.4026 36.3 25.4026 36.74ZM37.6063 41.06C36.9343 41.06 36.3663 40.94 35.9023 40.7C35.4463 40.46 35.0783 40.136 34.7983 39.728C34.5183 39.32 34.3183 38.864 34.1983 38.36C34.0783 37.848 34.0183 37.32 34.0183 36.776V32.48H34.8463V36.776C34.8463 37.224 34.8903 37.66 34.9783 38.084C35.0743 38.5 35.2263 38.876 35.4343 39.212C35.6423 39.548 35.9223 39.816 36.2743 40.016C36.6263 40.208 37.0663 40.304 37.5943 40.304C38.1383 40.304 38.5863 40.204 38.9383 40.004C39.2983 39.804 39.5823 39.536 39.7903 39.2C39.9983 38.856 40.1423 38.476 40.2223 38.06C40.3103 37.636 40.3543 37.208 40.3543 36.776V32.48H41.1943V36.776C41.1943 37.344 41.1303 37.888 41.0023 38.408C40.8743 38.92 40.6663 39.376 40.3783 39.776C40.0983 40.176 39.7303 40.492 39.2743 40.724C38.8183 40.948 38.2623 41.06 37.6063 41.06ZM44.0369 34.028V41H43.1969V32.48H43.8929L49.4849 39.584V32.492H50.3249V41H49.5449L44.0369 34.028ZM58.5144 33.224H55.4784V41H54.6384V33.224H51.6024V32.48H58.5144V33.224Z" fill="#77817D"/>
</svg>
