<svg width="32" height="43" viewBox="0 0 32 43" fill="none" xmlns="http://www.w3.org/2000/svg">
<path fill-rule="evenodd" clip-rule="evenodd" d="M24 7.8125H6V21.875C6 22.2894 6.15804 22.6868 6.43934 22.9799C6.72064 23.2729 7.10218 23.4375 7.5 23.4375H22.5C22.8978 23.4375 23.2794 23.2729 23.5607 22.9799C23.842 22.6868 24 22.2894 24 21.875V7.8125ZM4.5 6.25V21.875C4.5 22.7038 4.81607 23.4987 5.37868 24.0847C5.94129 24.6708 6.70435 25 7.5 25H22.5C23.2956 25 24.0587 24.6708 24.6213 24.0847C25.1839 23.4987 25.5 22.7038 25.5 21.875V6.25H4.5Z" fill="#77817D"/>
<path d="M15 2.34375C14.0054 2.34375 13.0516 2.7553 12.3483 3.48786C11.6451 4.22043 11.25 5.214 11.25 6.25H9.75C9.75 4.7996 10.3031 3.4086 11.2877 2.38301C12.2723 1.35742 13.6076 0.78125 15 0.78125C16.3924 0.78125 17.7277 1.35742 18.7123 2.38301C19.6969 3.4086 20.25 4.7996 20.25 6.25H18.75C18.75 5.214 18.3549 4.22043 17.6517 3.48786C16.9484 2.7553 15.9946 2.34375 15 2.34375V2.34375Z" fill="#77817D"/>
<path d="M0.504 35.68C0.504 35.168 0.592 34.66 0.768 34.156C0.952 33.652 1.216 33.196 1.56 32.788C1.904 32.372 2.328 32.044 2.832 31.804C3.336 31.556 3.908 31.432 4.548 31.432C5.3 31.432 5.948 31.608 6.492 31.96C7.036 32.304 7.436 32.748 7.692 33.292L7.032 33.7C6.848 33.324 6.616 33.028 6.336 32.812C6.056 32.588 5.756 32.428 5.436 32.332C5.124 32.236 4.812 32.188 4.5 32.188C3.988 32.188 3.536 32.292 3.144 32.5C2.752 32.7 2.42 32.972 2.148 33.316C1.884 33.66 1.684 34.04 1.548 34.456C1.412 34.872 1.344 35.296 1.344 35.728C1.344 36.2 1.424 36.652 1.584 37.084C1.744 37.508 1.968 37.888 2.256 38.224C2.544 38.56 2.88 38.828 3.264 39.028C3.656 39.22 4.08 39.316 4.536 39.316C4.856 39.316 5.184 39.26 5.52 39.148C5.856 39.036 6.168 38.864 6.456 38.632C6.744 38.4 6.98 38.1 7.164 37.732L7.86 38.092C7.676 38.516 7.4 38.876 7.032 39.172C6.672 39.468 6.264 39.692 5.808 39.844C5.36 39.996 4.92 40.072 4.488 40.072C3.904 40.072 3.368 39.948 2.88 39.7C2.392 39.444 1.968 39.108 1.608 38.692C1.256 38.268 0.984 37.796 0.792 37.276C0.6 36.748 0.504 36.216 0.504 35.68ZM11.8174 31.48H12.5254L16.0654 40H15.1774L14.0734 37.336H10.2454L9.15338 40H8.25338L11.8174 31.48ZM13.8814 36.676L12.1654 32.464L10.4254 36.676H13.8814ZM17.2868 40V31.48H20.8868C21.2548 31.48 21.5908 31.556 21.8948 31.708C22.2068 31.86 22.4748 32.068 22.6988 32.332C22.9228 32.588 23.0948 32.876 23.2148 33.196C23.3428 33.508 23.4068 33.828 23.4068 34.156C23.4068 34.572 23.3268 34.96 23.1668 35.32C23.0148 35.68 22.7948 35.984 22.5068 36.232C22.2188 36.48 21.8868 36.64 21.5108 36.712L23.5988 40H22.6508L20.6468 36.856H18.1268V40H17.2868ZM18.1268 36.112H20.9108C21.2468 36.112 21.5388 36.02 21.7868 35.836C22.0348 35.644 22.2268 35.4 22.3628 35.104C22.4988 34.808 22.5668 34.492 22.5668 34.156C22.5668 33.812 22.4868 33.496 22.3268 33.208C22.1748 32.912 21.9668 32.676 21.7028 32.5C21.4388 32.316 21.1508 32.224 20.8388 32.224H18.1268V36.112ZM31.0926 32.224H28.0566V40H27.2166V32.224H24.1806V31.48H31.0926V32.224Z" fill="#77817D"/>
</svg>
