<svg width="36" height="49" viewBox="0 0 36 49" fill="none" xmlns="http://www.w3.org/2000/svg">
<path d="M31.9644 13.9281L18.6311 1.84472C18.4646 1.69469 18.2393 1.61047 18.0044 1.61047C17.7696 1.61047 17.5443 1.69469 17.3778 1.84472L4.04443 13.9281C3.8988 14.0822 3.82271 14.2804 3.83135 14.4831C3.83999 14.6859 3.93273 14.8782 4.09104 15.0216C4.24934 15.1651 4.46156 15.2492 4.68527 15.257C4.90898 15.2648 5.12772 15.1959 5.29776 15.0639L18 3.5525L30.7022 15.0719C30.8723 15.2039 31.091 15.2729 31.3147 15.265C31.5384 15.2572 31.7506 15.1732 31.9089 15.0297C32.0672 14.8862 32.16 14.6939 32.1686 14.4912C32.1773 14.2884 32.1012 14.0902 31.9555 13.9361L31.9644 13.9281Z" fill="#6C63FF"/>
<path d="M26.8889 25.7778H22.4445V17.7222H13.5556V25.7778H9.11112V14.5L7.33334 16.1111V25.7778C7.33334 26.205 7.52064 26.6148 7.85404 26.917C8.18744 27.2191 8.63963 27.3889 9.11112 27.3889H15.3333V19.3333H20.6667V27.3889H26.8889C27.3604 27.3889 27.8126 27.2191 28.146 26.917C28.4794 26.6148 28.6667 26.205 28.6667 25.7778V15.9178L26.8889 14.3066V25.7778Z" fill="#6C63FF"/>
<path d="M7.788 37.48V46H6.96V42.016H1.908V46H1.068V37.48H1.908V41.272H6.96V37.48H7.788ZM13.3594 46.06C12.7594 46.06 12.2154 45.94 11.7274 45.7C11.2394 45.452 10.8194 45.124 10.4674 44.716C10.1154 44.308 9.84338 43.848 9.65137 43.336C9.45938 42.816 9.36338 42.284 9.36338 41.74C9.36338 41.172 9.46338 40.632 9.66338 40.12C9.86338 39.6 10.1434 39.14 10.5034 38.74C10.8714 38.332 11.2994 38.012 11.7874 37.78C12.2754 37.54 12.8034 37.42 13.3714 37.42C13.9634 37.42 14.5034 37.544 14.9914 37.792C15.4794 38.04 15.8994 38.372 16.2514 38.788C16.6114 39.204 16.8834 39.668 17.0674 40.18C17.2594 40.692 17.3554 41.216 17.3554 41.752C17.3554 42.32 17.2554 42.864 17.0554 43.384C16.8554 43.896 16.5754 44.356 16.2154 44.764C15.8554 45.164 15.4314 45.48 14.9434 45.712C14.4554 45.944 13.9274 46.06 13.3594 46.06ZM10.2034 41.74C10.2034 42.204 10.2794 42.648 10.4314 43.072C10.5834 43.496 10.7994 43.876 11.0794 44.212C11.3594 44.548 11.6914 44.816 12.0754 45.016C12.4674 45.208 12.8954 45.304 13.3594 45.304C13.8474 45.304 14.2834 45.204 14.6674 45.004C15.0594 44.796 15.3914 44.52 15.6634 44.176C15.9434 43.832 16.1554 43.452 16.2994 43.036C16.4434 42.612 16.5154 42.18 16.5154 41.74C16.5154 41.276 16.4394 40.832 16.2874 40.408C16.1354 39.984 15.9154 39.604 15.6274 39.268C15.3474 38.932 15.0154 38.668 14.6314 38.476C14.2474 38.284 13.8234 38.188 13.3594 38.188C12.8794 38.188 12.4434 38.288 12.0514 38.488C11.6674 38.688 11.3354 38.96 11.0554 39.304C10.7834 39.64 10.5714 40.02 10.4194 40.444C10.2754 40.868 10.2034 41.3 10.2034 41.74ZM26.4871 46V39.064L23.4031 44.452H22.8751L19.7791 39.064V46H18.9391V37.48H19.8031L23.1271 43.312L26.4751 37.48H27.3271V46H26.4871ZM35.1865 45.256V46H29.4625V37.48H35.0785V38.224H30.3025V41.296H34.4665V42.004H30.3025V45.256H35.1865Z" fill="#6C63FF"/>
</svg>
