<svg width="48" height="42" viewBox="0 0 48 42" fill="none" xmlns="http://www.w3.org/2000/svg">
<g clip-path="url(#clip0)">
<path fill-rule="evenodd" clip-rule="evenodd" d="M24.9683 15.0103C25.1192 14.8767 25.2984 14.7707 25.4957 14.6983C25.6929 14.626 25.9044 14.5887 26.1179 14.5887C26.3315 14.5887 26.5429 14.626 26.7402 14.6983C26.9375 14.7707 27.1167 14.8767 27.2676 15.0103L33.5239 20.5447C33.8288 20.8143 34.0002 21.1799 34.0003 21.5612C34.0005 21.9426 33.8294 22.3083 33.5247 22.5781C33.22 22.8478 32.8066 22.9994 32.3756 22.9995C31.9445 22.9997 31.531 22.8483 31.2261 22.5788L24.9699 17.0444C24.8188 16.9109 24.6989 16.7524 24.6172 16.5779C24.5354 16.4033 24.4933 16.2163 24.4933 16.0274C24.4933 15.8385 24.5354 15.6514 24.6172 15.4769C24.6989 15.3024 24.8188 15.1439 24.9699 15.0103H24.9683Z" fill="#77817D"/>
<path fill-rule="evenodd" clip-rule="evenodd" d="M18.5625 17.25C19.7362 17.25 20.8984 17.0455 21.9827 16.6482C23.0671 16.2508 24.0523 15.6685 24.8823 14.9343C25.7122 14.2002 26.3705 13.3286 26.8197 12.3693C27.2688 11.4101 27.5 10.382 27.5 9.34375C27.5 8.30549 27.2688 7.27739 26.8197 6.31816C26.3705 5.35893 25.7122 4.48735 24.8823 3.75319C24.0523 3.01902 23.0671 2.43665 21.9827 2.03933C20.8984 1.642 19.7362 1.4375 18.5625 1.4375C16.1921 1.4375 13.9188 2.27048 12.2427 3.75319C10.5666 5.2359 9.625 7.24688 9.625 9.34375C9.625 11.4406 10.5666 13.4516 12.2427 14.9343C13.9188 16.417 16.1921 17.25 18.5625 17.25V17.25ZM29.125 9.34375C29.125 11.8219 28.0122 14.1985 26.0313 15.9508C24.0505 17.7031 21.3638 18.6875 18.5625 18.6875C15.7612 18.6875 13.0745 17.7031 11.0937 15.9508C9.11283 14.1985 8 11.8219 8 9.34375C8 6.86563 9.11283 4.48901 11.0937 2.73672C13.0745 0.984428 15.7612 0 18.5625 0C21.3638 0 24.0505 0.984428 26.0313 2.73672C28.0122 4.48901 29.125 6.86563 29.125 9.34375V9.34375Z" fill="#77817D"/>
</g>
<path d="M6.048 32.076C5.808 31.812 5.488 31.596 5.088 31.428C4.688 31.252 4.232 31.164 3.72 31.164C2.968 31.164 2.42 31.308 2.076 31.596C1.732 31.876 1.56 32.26 1.56 32.748C1.56 33.084 1.644 33.348 1.812 33.54C1.98 33.732 2.236 33.892 2.58 34.02C2.932 34.14 3.38 34.26 3.924 34.38C4.532 34.508 5.056 34.66 5.496 34.836C5.936 35.012 6.276 35.252 6.516 35.556C6.756 35.852 6.876 36.256 6.876 36.768C6.876 37.288 6.744 37.72 6.48 38.064C6.216 38.408 5.852 38.664 5.388 38.832C4.924 38.992 4.396 39.072 3.804 39.072C2.476 39.072 1.336 38.66 0.384 37.836L0.804 37.152C1.108 37.472 1.524 37.748 2.052 37.98C2.588 38.212 3.18 38.328 3.828 38.328C4.5 38.328 5.028 38.204 5.412 37.956C5.796 37.708 5.988 37.34 5.988 36.852C5.988 36.5 5.892 36.22 5.7 36.012C5.508 35.796 5.22 35.62 4.836 35.484C4.452 35.348 3.98 35.216 3.42 35.088C2.828 34.952 2.328 34.8 1.92 34.632C1.52 34.464 1.216 34.244 1.008 33.972C0.8 33.7 0.696 33.332 0.696 32.868C0.696 32.34 0.824 31.896 1.08 31.536C1.344 31.168 1.704 30.892 2.16 30.708C2.616 30.516 3.14 30.42 3.732 30.42C4.292 30.42 4.796 30.508 5.244 30.684C5.692 30.852 6.096 31.092 6.456 31.404L6.048 32.076ZM14.0811 38.256V39H8.35706V30.48H13.9731V31.224H9.19706V34.296H13.3611V35.004H9.19706V38.256H14.0811ZM18.3096 30.48H19.0176L22.5576 39H21.6696L20.5656 36.336H16.7376L15.6456 39H14.7456L18.3096 30.48ZM20.3736 35.676L18.6576 31.464L16.9176 35.676H20.3736ZM23.7789 39V30.48H27.3789C27.7469 30.48 28.0829 30.556 28.3869 30.708C28.6989 30.86 28.9669 31.068 29.1909 31.332C29.4149 31.588 29.5869 31.876 29.7069 32.196C29.8349 32.508 29.8989 32.828 29.8989 33.156C29.8989 33.572 29.8189 33.96 29.6589 34.32C29.5069 34.68 29.2869 34.984 28.9989 35.232C28.7109 35.48 28.3789 35.64 28.0029 35.712L30.0909 39H29.1429L27.1389 35.856H24.6189V39H23.7789ZM24.6189 35.112H27.4029C27.7389 35.112 28.0309 35.02 28.2789 34.836C28.5269 34.644 28.7189 34.4 28.8549 34.104C28.9909 33.808 29.0589 33.492 29.0589 33.156C29.0589 32.812 28.9789 32.496 28.8189 32.208C28.6669 31.912 28.4589 31.676 28.1949 31.5C27.9309 31.316 27.6429 31.224 27.3309 31.224H24.6189V35.112ZM31.0548 34.68C31.0548 34.168 31.1428 33.66 31.3188 33.156C31.5028 32.652 31.7668 32.196 32.1108 31.788C32.4548 31.372 32.8788 31.044 33.3828 30.804C33.8868 30.556 34.4588 30.432 35.0988 30.432C35.8508 30.432 36.4988 30.608 37.0428 30.96C37.5868 31.304 37.9868 31.748 38.2428 32.292L37.5828 32.7C37.3988 32.324 37.1668 32.028 36.8868 31.812C36.6068 31.588 36.3068 31.428 35.9868 31.332C35.6748 31.236 35.3628 31.188 35.0508 31.188C34.5388 31.188 34.0868 31.292 33.6948 31.5C33.3028 31.7 32.9708 31.972 32.6988 32.316C32.4348 32.66 32.2348 33.04 32.0988 33.456C31.9628 33.872 31.8948 34.296 31.8948 34.728C31.8948 35.2 31.9748 35.652 32.1348 36.084C32.2948 36.508 32.5188 36.888 32.8068 37.224C33.0948 37.56 33.4308 37.828 33.8148 38.028C34.2068 38.22 34.6308 38.316 35.0868 38.316C35.4068 38.316 35.7348 38.26 36.0708 38.148C36.4068 38.036 36.7188 37.864 37.0068 37.632C37.2948 37.4 37.5308 37.1 37.7148 36.732L38.4108 37.092C38.2268 37.516 37.9508 37.876 37.5828 38.172C37.2228 38.468 36.8148 38.692 36.3588 38.844C35.9108 38.996 35.4708 39.072 35.0388 39.072C34.4548 39.072 33.9188 38.948 33.4308 38.7C32.9428 38.444 32.5188 38.108 32.1588 37.692C31.8068 37.268 31.5348 36.796 31.3428 36.276C31.1508 35.748 31.0548 35.216 31.0548 34.68ZM46.5653 30.48V39H45.7373V35.016H40.6853V39H39.8453V30.48H40.6853V34.272H45.7373V30.48H46.5653Z" fill="#77817D"/>
<defs>
<clipPath id="clip0">
<rect width="26" height="23" fill="white" transform="translate(8)"/>
</clipPath>
</defs>
</svg>
