<svg width="522" height="278" viewBox="0 0 522 278" fill="none" xmlns="http://www.w3.org/2000/svg">
<rect width="522" height="278" fill="#FFFEFE"/>
<g clip-path="url(#clip0)">
<path d="M428.743 151.943C438.647 151.943 446.676 143.531 446.676 133.154C446.676 122.777 438.647 114.365 428.743 114.365C418.839 114.365 410.811 122.777 410.811 133.154C410.811 143.531 418.839 151.943 428.743 151.943Z" fill="#F2F2F2"/>
<path d="M428.743 138.099C431.35 138.099 433.462 135.885 433.462 133.154C433.462 130.423 431.35 128.21 428.743 128.21C426.137 128.21 424.024 130.423 424.024 133.154C424.024 135.885 426.137 138.099 428.743 138.099Z" fill="#E6E6E6"/>
<path d="M427.881 133.26C429.869 134.959 430.475 137.637 430.105 140.223C429.65 143.059 428.246 145.633 426.144 147.482C423.78 149.683 420.896 151.171 418.114 152.694C415.558 154.061 413.101 155.623 410.764 157.369C401.816 164.183 395.057 173.885 391.188 184.712C387.326 195.521 386.289 207.789 389.224 218.991C390.676 224.533 393.614 230.513 399.086 232.599C403.448 234.261 409.404 233.19 411.625 228.48C414.011 223.419 410.682 217.732 406.394 215.22C400.836 211.963 394.197 214.343 389.197 217.639C383.693 221.268 379.269 226.475 373.523 229.727C370.936 231.237 368.058 232.117 365.102 232.301C362.388 232.413 359.678 231.974 357.123 231.009C351.82 228.985 347.256 225.273 344.069 220.393C340.419 214.834 338.785 208.019 338.487 201.344C337.821 186.409 343.452 172.436 347.97 158.585C350.398 151.373 352.217 143.951 353.406 136.405C354.536 128.82 354.939 121.136 354.607 113.468C354.308 106.687 353.669 99.5966 350.813 93.4037C348.301 87.9581 343.711 83.5012 337.908 82.3776C335.292 81.8397 332.581 82.1659 330.15 83.3113C329.322 83.707 330.041 84.9858 330.865 84.5921C336 82.1374 342.07 84.5258 345.864 88.4893C350.293 93.1176 351.92 99.9525 352.642 106.259C354.265 121.205 352.986 136.341 348.882 150.756C344.943 164.775 338.747 178.209 337.318 192.896C336.665 199.598 337 206.527 339.045 212.953C340.799 218.678 344.088 223.753 348.52 227.572C352.693 231.107 357.826 233.515 363.23 233.783C369.296 234.084 374.616 231.251 379.322 227.481C384.362 223.444 389 218.463 395.106 216.2C397.889 215.168 401.06 214.686 403.918 215.679C406.37 216.557 408.45 218.309 409.794 220.63C411.036 222.792 411.493 225.496 410.361 227.82C409.296 230.004 407.217 231.267 404.966 231.7C402.583 232.141 400.128 231.704 398.018 230.463C395.553 228.988 393.749 226.512 392.485 223.896C389.965 218.68 389.118 212.47 388.99 206.681C388.877 201.025 389.569 195.384 391.042 189.942C393.973 178.934 399.889 169.053 408.072 161.497C410.134 159.615 412.34 157.914 414.667 156.41C417.206 154.77 419.916 153.46 422.504 151.913C425.051 150.391 427.561 148.572 429.315 146.067C430.81 143.92 431.617 141.332 431.621 138.674C431.648 137.452 431.416 136.239 430.942 135.121C430.469 134.004 429.765 133.01 428.882 132.211C428.182 131.612 427.175 132.656 427.881 133.26V133.26Z" fill="#CCCCCC"/>

<g>
  <title>Layer 1</title>
  <rect stroke="#3f3c72" id="svg_45" height="351.906" width="207.36051" y="87.36134" x="186.31764" stroke-width="1.5" fill="#3f3c72"/>
  <rect id="svg_8" height="209.01846" width="160.65733" y="120.82016" x="199.51017" stroke-opacity="0.1" stroke-width="1.5" stroke="#73f4d4" fill="#ffffff"/>
  <rect id="svg_9" height="0" width="15.57392" y="251.969" x="270.00267" fill-opacity="null" stroke-opacity="null" stroke-width="1.5" stroke="#000" fill="none"/>
  <line stroke-linecap="null" stroke-linejoin="null" id="svg_10" y2="173.44353" x2="360.16749" y1="173.44353" x1="199.51017" fill-opacity="null" stroke-opacity="null" stroke-width="0.8" stroke="#000" fill="none"/>
  <line stroke-linecap="null" stroke-linejoin="null" id="svg_12" y2="223.44353" x2="360.16749" y1="223.44353" x1="199.51017" fill-opacity="null" stroke-opacity="null" stroke-width="0.8" stroke="#000" fill="none"/>
  <line stroke-linecap="null" stroke-linejoin="null" id="svg_13" y2="283.44353" x2="360.16749" y1="283.44353" x1="199.51017" fill-opacity="null" stroke-opacity="null" stroke-width="0.8" stroke="#000" fill="none"/>
  <rect id="svg_21" height="32.5" width="23.125" y="208.75" x="365.75" stroke-opacity="null" stroke-width="0.8" stroke="#000" fill="#27182b"/>
  <rect stroke="#000" id="svg_23" height="18.40016" width="188.91818" y="358.80254" x="192.00169" stroke-opacity="null" stroke-width="0.8" fill="#2d2828"/>
  <rect stroke="#000" id="svg_24" height="6.79616" width="22.33023" y="208.49597" x="365.92213" stroke-opacity="null" stroke-width="0.8" fill="#ffffaa"/>
  <path id="svg_31" d="m352.50522,490.93164l0,-1.49l1.49,1.49l-1.49,0z" fill-opacity="0.3" stroke-opacity="0.3" stroke-width="1.5" stroke="url(#svg_28)" fill="#f2f7f7"/>
  <path id="svg_33" d="m352.50522,490.93164l0,-1.49l1.49,1.49l-1.49,0z" fill-opacity="0.3" stroke-opacity="0.3" stroke-width="1.5" stroke="url(#svg_28)" fill="#f2f7f7"/>
  <path id="svg_34" d="m352.50522,490.93164l0,-1.49l1.49,1.49l-1.49,0z" fill-opacity="0.3" stroke-opacity="0.3" stroke-width="1.5" stroke="url(#svg_28)" fill="#f2f7f7"/>
  <path stroke="url(#svg_28)" id="svg_35" d="m319.66038,458.08677l0,-1.49l1.49,1.49l-1.49,0z" fill-opacity="0.3" stroke-opacity="0.3" stroke-width="1.5" fill="#f2f7f7"/>
  <path stroke="#2f2e41" transform="rotate(179.36178588867188 184.6731414794922,413.3992004394531) " id="svg_38" d="m171.36647,438.65059l13.30666,-50.50277l13.30667,50.50277l-26.61333,0z" fill="#2f2e41"/>
  <rect stroke="#000" id="svg_42" height="53.3284" width="209.85418" y="387.72453" x="185.12437" stroke-opacity="null" stroke-width="0" fill="#2f2e41"/>
  <path stroke="#000" transform="rotate(179.36178588867188 395.0014953613281,413.44787597656256) " id="svg_44" d="m381.40918,439.96831l13.59231,-53.04087l13.59232,53.04087l-27.18463,0z" stroke-opacity="null" stroke-width="0" fill="#ffffff"/>
  <path stroke="#28273a" transform="rotate(171.79098510742188 390.48101806640625,414.03057861328125) " id="svg_46" d="m382.88602,441.76399l7.59499,-55.46681l7.59499,55.46681l-15.18998,0z" stroke-width="0.8" fill="#28273a"/>
  <path stroke="#28273a" transform="rotate(-89.07769012451172 178.4516296386719,376.1751403808594) " id="svg_48" d="m166.49358,383.52293l0,-14.69555l23.9161,14.69555l-23.9161,0z" stroke-width="0.8" fill="#28273a"/>
  <path stroke="#28273a" transform="rotate(-89.07769012451172 386.462158203125,375.6457824707031) " id="svg_51" d="m374.5041,382.99357l0,-14.69556l23.9161,14.69556l-23.9161,0z" stroke-width="0.8" fill="#28273a"/>
  <rect id="svg_55" height="35.91549" width="27.46479" y="186" x="324" stroke-opacity="null" stroke-width="0" stroke="#000" fill="#56ffff"/>
  <rect id="svg_56" height="35.91549" width="27.46479" y="186.33803" x="285" stroke-opacity="null" stroke-width="0" stroke="#000" fill="#ff7f00"/>
  <rect id="svg_57" height="35.91549" width="27.46479" y="186.33803" x="207" stroke-opacity="null" stroke-width="0" stroke="#000" fill="#5656ff"/>
  <rect id="svg_58" height="35.91549" width="27.46479" y="186.33803" x="247" stroke-opacity="null" stroke-width="0" stroke="#000" fill="#ff56aa"/>
  <line stroke-linecap="null" stroke-linejoin="null" id="svg_59" y2="173.44353" x2="360.16749" y1="173.44353" x1="199.51017" fill-opacity="null" stroke-opacity="null" stroke-width="0.8" stroke="#000" fill="none"/>
  <rect id="svg_60" height="35.91549" width="27.46479" y="136" x="324" stroke-opacity="null" stroke-width="0" stroke="#000" fill="#ffff00"/>
  <rect id="svg_61" height="35.91549" width="27.46479" y="136.33803" x="285" stroke-opacity="null" stroke-width="0" stroke="#000" fill="#ff5656"/>
  <rect id="svg_62" height="35.91549" width="27.46479" y="136.33803" x="207" stroke-opacity="null" stroke-width="0" stroke="#000" fill="#ffaa56"/>
  <rect id="svg_63" height="35.91549" width="27.46479" y="136.33803" x="247" stroke-opacity="null" stroke-width="0" stroke="#000" fill="#00bf5f"/>
  <line stroke-linecap="null" stroke-linejoin="null" id="svg_64" y2="283.44353" x2="360.16749" y1="283.44353" x1="199.51017" fill-opacity="null" stroke-opacity="null" stroke-width="0.8" stroke="#000" fill="none"/>
  <rect id="svg_65" height="35.91549" width="27.46479" y="246" x="324" stroke-opacity="null" stroke-width="0" stroke="#000" fill="#7f7f00"/>
  <rect id="svg_66" height="35.91549" width="27.46479" y="246.33803" x="285" stroke-opacity="null" stroke-width="0" stroke="#000" fill="#aaff56"/>
  <rect id="svg_67" height="35.91549" width="27.46479" y="246.33803" x="207" stroke-opacity="null" stroke-width="0" stroke="#000" fill="#aa56ff"/>
  <rect id="svg_68" height="35.91549" width="27.46479" y="246.33803" x="247" stroke-opacity="null" stroke-width="0" stroke="#000" fill="#666666"/>
  <path stroke="#2f2e41" transform="rotate(179.5830535888672 331.76043701171875,79.16913604736328) " id="svg_70" d="m233.62769,86.24364l36.79978,-14.14901l122.66594,0l36.79977,14.14901l-196.26549,0z" stroke-width="1.5" fill="#2f2e41"/>
  <path transform="rotate(-0.44957560300827026 284.0000000000036,79.16914367676372) " stroke="#2f2e41" id="svg_71" d="m185.86726,86.24365l36.79978,-14.14901l122.66594,0l36.79977,14.14901l-196.26549,0z" stroke-width="1.5" fill="#2f2e41"/>
  <path stroke="#28273a" transform="rotate(89.57376861572266 412.18115234375,368.881591796875) " id="svg_72" d="m341.41102,386.75411l26.53879,-35.74501l88.46266,0l26.53878,35.74501l-141.54023,0z" stroke-width="1.5" fill="#28273a"/>
  <path stroke="#2f2e41" transform="rotate(-90.22650146484375 412.27655029296875,109.56745147705075) " id="svg_74" d="m374.38891,127.4057l14.20787,-35.67649l47.35958,0l14.20786,35.67649l-75.77531,0z" stroke-width="1.5" fill="#28273a"/>
  <rect stroke="#28273a" id="svg_75" height="194.28666" width="35.71446" y="133.85779" x="394.28765" stroke-width="1.5" fill="#28273a"/>
  <text stroke="#4b4882" transform="matrix(0.730292058188216,0,0,0.5588064909043876,157.43882329203214,133.53014954571765) " xml:space="preserve" text-anchor="start" font-family="Euphoria, sans-serif" font-size="24" id="svg_77" y="-44.67767" x="130.96576" stroke-width="0" fill="#f8fc1e">JustVend</text>
 </g>

<path d="M138.688 232.73C142.932 228.973 145.51 223.038 144.834 217.26C144.158 211.482 139.971 206.17 134.54 204.943C129.109 203.716 122.918 207.113 121.268 212.672C120.36 201.955 119.314 190.789 113.876 181.662C108.952 173.398 100.424 167.485 91.1806 166.427C81.9375 165.37 72.2059 169.365 66.4413 177.009C60.6768 184.653 59.2654 195.765 63.3027 204.541C66.2769 211.006 71.7563 215.817 77.4974 219.731C95.8134 232.218 118.534 236.438 140.154 233.104L138.688 232.73Z" fill="#F2F2F2"/>
<path d="M75.5816 169.586C83.2082 176.095 90.2048 183.375 96.4702 191.32C102.737 199.256 108.254 207.811 112.943 216.864C115.565 221.942 117.92 227.167 119.998 232.514C120.421 233.602 118.735 234.075 118.317 233C114.636 223.572 110.083 214.546 104.722 206.049C99.3869 197.584 93.2808 189.68 86.4893 182.45C82.6479 178.362 78.595 174.499 74.3488 170.878C73.4785 170.135 74.7184 168.85 75.5816 169.586V169.586Z" fill="white"/>
<path d="M137.25 76.6337C145.329 76.6337 151.879 69.7711 151.879 61.3057C151.879 52.8404 145.329 45.9778 137.25 45.9778C129.17 45.9778 122.62 52.8404 122.62 61.3057C122.62 69.7711 129.17 76.6337 137.25 76.6337Z" fill="#2F2E41"/>
<path d="M191.81 117.431C191.53 117.873 191.188 118.269 190.796 118.604C190.232 119.092 189.576 119.449 188.87 119.652C188.165 119.856 187.427 119.9 186.704 119.784C185.981 119.667 185.289 119.392 184.675 118.976C184.061 118.56 183.537 118.012 183.139 117.37C183.046 117.22 182.962 117.065 182.885 116.906L159.833 114.576C158.013 114.384 156.301 113.584 154.95 112.292C153.6 111 152.683 109.287 152.335 107.406L151.027 100.179L160.023 98.7122L161.638 104.502L184.114 110.286C184.288 110.126 184.473 109.979 184.666 109.846C185.669 109.164 186.865 108.866 188.054 109.001C189.242 109.136 190.349 109.697 191.189 110.588C192.028 111.48 192.548 112.647 192.662 113.894C192.775 115.141 192.474 116.39 191.81 117.431L191.81 117.431Z" fill="#FFB8B8"/>
<path d="M162.191 103.628L152.141 106.472C151.597 106.625 151.018 106.546 150.529 106.252C150.041 105.959 149.684 105.474 149.537 104.904L146.017 91.2517C145.64 89.7893 145.793 88.2324 146.446 86.8812C147.1 85.53 148.208 84.4802 149.557 83.9343C150.905 83.3883 152.399 83.3849 153.75 83.9246C155.101 84.4644 156.213 85.509 156.873 86.8572L163.527 100.465C163.671 100.76 163.751 101.085 163.76 101.417C163.769 101.748 163.707 102.077 163.579 102.38C163.451 102.683 163.26 102.953 163.019 103.169C162.779 103.384 162.496 103.541 162.191 103.628V103.628Z" fill="#2F2E41"/>
<path d="M156.369 228.99H162.154L164.907 205.608L156.368 205.609L156.369 228.99Z" fill="#FFB8B8"/>
<path d="M173.313 234.618L155.129 234.619L155.129 227.258L166.287 227.258C168.15 227.258 169.937 228.033 171.255 229.413C172.572 230.794 173.312 232.666 173.313 234.618V234.618V234.618Z" fill="#2F2E41"/>
<path d="M104.804 223.082L110.216 225.223L120.675 204.368L112.686 201.208L104.804 223.082Z" fill="#FFB8B8"/>
<path d="M118.757 234.619L101.746 227.889L104.228 221.003L114.666 225.133C116.409 225.822 117.82 227.209 118.587 228.988C119.354 230.767 119.415 232.793 118.757 234.619V234.619L118.757 234.619Z" fill="#2F2E41"/>
<path d="M156.186 223.559C155.738 223.559 155.301 223.41 154.939 223.133C154.576 222.856 154.307 222.466 154.169 222.019L139.413 174.273C139.369 174.132 139.286 174.007 139.174 173.916C139.061 173.824 138.926 173.771 138.784 173.761C138.642 173.752 138.501 173.787 138.379 173.863C138.257 173.939 138.159 174.051 138.098 174.186L117.649 219.775C117.427 220.267 117.041 220.658 116.563 220.873C116.085 221.087 115.549 221.111 115.055 220.939L107.001 218.126C106.49 217.946 106.062 217.57 105.806 217.072C105.549 216.575 105.483 215.994 105.62 215.447L118.146 165.732C119.457 160.465 120.404 155.107 120.979 149.698C121.858 140.791 125.843 132.538 132.171 126.52C134.935 123.868 136.731 120.29 137.252 116.402L137.286 116.153L155.631 119.188L167.251 218.537C167.311 219.069 167.187 219.605 166.901 220.049C166.616 220.493 166.188 220.815 165.695 220.956L156.741 223.482C156.56 223.533 156.374 223.559 156.186 223.559V223.559Z" fill="#2F2E41"/>
<path d="M143.061 76.5607C149.462 76.5607 154.652 71.1235 154.652 64.4165C154.652 57.7094 149.462 52.2723 143.061 52.2723C136.66 52.2723 131.47 57.7094 131.47 64.4165C131.47 71.1235 136.66 76.5607 143.061 76.5607Z" fill="#FFB8B8"/>
<path d="M154.491 121.307C154.454 121.307 154.418 121.306 154.381 121.304L136.196 120.351C135.688 120.327 135.206 120.112 134.837 119.746C134.469 119.379 134.239 118.886 134.189 118.356L131.705 92.9766C131.523 91.118 131.778 89.2411 132.447 87.5093C133.116 85.7775 134.179 84.2433 135.543 83.0406C136.908 81.8378 138.532 81.003 140.275 80.6087C142.018 80.2144 143.827 80.2727 145.543 80.7785H145.544C146.966 81.1866 148.291 81.901 149.435 82.8759C162.227 93.8834 158.102 113.828 156.534 119.678C156.411 120.146 156.144 120.56 155.775 120.854C155.406 121.148 154.954 121.307 154.491 121.307V121.307Z" fill="#6C63FF"/>
<path d="M138.67 138.348C138.164 138.348 137.66 138.269 137.176 138.113C136.476 137.891 135.829 137.516 135.276 137.014C134.724 136.511 134.28 135.892 133.972 135.196C133.664 134.501 133.5 133.746 133.49 132.979C133.48 132.213 133.625 131.453 133.916 130.749C133.983 130.586 134.06 130.426 134.144 130.271L123.226 108.871C122.37 107.178 122.058 105.241 122.336 103.347C122.614 101.454 123.468 99.7046 124.77 98.3595L129.788 93.2146L135.937 100.25L132.231 104.866L140.084 127.676C140.308 127.74 140.527 127.819 140.74 127.915C141.837 128.411 142.737 129.29 143.288 130.401C143.838 131.513 144.006 132.789 143.763 134.015C143.52 135.241 142.88 136.342 141.952 137.131C141.024 137.921 139.865 138.351 138.67 138.348L138.67 138.348Z" fill="#FFB8B8"/>
<path d="M133.231 104.864L125.404 97.6725C124.981 97.2831 124.723 96.7338 124.686 96.1452C124.649 95.5565 124.837 94.9766 125.208 94.5326L134.106 83.8995C135.059 82.7605 136.381 82.0316 137.817 81.8533C139.253 81.6751 140.701 82.0601 141.882 82.9341C143.062 83.8081 143.893 85.1093 144.212 86.5867C144.531 88.0641 144.318 89.6131 143.612 90.935L136.484 104.277C136.33 104.567 136.116 104.816 135.857 105.008C135.599 105.199 135.303 105.327 134.991 105.384C134.679 105.44 134.36 105.422 134.055 105.332C133.751 105.242 133.469 105.082 133.231 104.864V104.864Z" fill="#2F2E41"/>
<path d="M135.603 76.2131C136.66 76.606 137.957 76.9524 138.789 76.1375C139.601 75.342 139.453 73.8873 138.975 72.8155C138.496 71.7438 137.754 70.7901 137.526 69.6236C137.2 67.9518 138.043 66.215 139.247 65.1251C140.451 64.0351 141.966 63.4626 143.445 62.9116L151.559 59.8897C153.567 59.1416 155.731 58.2629 156.855 56.2944C158.482 53.4461 156.995 49.3746 154.327 47.7125C151.66 46.0504 148.291 46.3601 145.413 47.5288C143.821 48.1751 142.307 49.0658 140.661 49.5208C137.412 50.4188 133.718 49.6132 130.863 51.5325C128.378 53.2032 127.225 56.6122 127.309 59.8018C127.393 62.9915 128.514 66.0292 129.696 68.9463C130.399 70.6818 131.151 72.4373 132.342 73.8176C133.533 75.1979 135.255 76.1635 136.975 75.9096L135.603 76.2131Z" fill="#2F2E41"/>
<path d="M124.98 63.778C130.192 63.778 134.418 59.3505 134.418 53.889C134.418 48.4275 130.192 44 124.98 44C119.767 44 115.542 48.4275 115.542 53.889C115.542 59.3505 119.767 63.778 124.98 63.778Z" fill="#2F2E41"/>
<path d="M201.529 110.973L201.362 110.949L201.992 106.142C202.089 105.404 201.902 104.656 201.473 104.062C201.043 103.469 200.406 103.078 199.702 102.977L189.981 101.577C189.276 101.475 188.562 101.671 187.996 102.121C187.429 102.571 187.057 103.239 186.96 103.977L183.5 130.351C183.403 131.089 183.59 131.837 184.019 132.43C184.449 133.024 185.086 133.414 185.79 133.516L195.511 134.916C196.216 135.017 196.93 134.822 197.496 134.372C198.063 133.921 198.435 133.254 198.532 132.516L200.913 114.371L201.08 114.395L201.529 110.973Z" fill="#3F3D56"/>
<path d="M199.396 104.387L198.186 104.213C198.223 104.364 198.224 104.522 198.189 104.674C198.153 104.825 198.083 104.965 197.984 105.081C197.885 105.198 197.76 105.287 197.621 105.341C197.481 105.395 197.331 105.412 197.184 105.39L191.872 104.625C191.724 104.604 191.584 104.545 191.463 104.454C191.343 104.362 191.246 104.241 191.18 104.101C191.115 103.961 191.083 103.807 191.088 103.651C191.094 103.495 191.135 103.343 191.21 103.208L190.079 103.045C189.831 103.01 189.578 103.025 189.335 103.092C189.093 103.158 188.865 103.274 188.665 103.433C188.466 103.592 188.298 103.79 188.171 104.017C188.044 104.244 187.962 104.495 187.927 104.755L184.632 129.875C184.563 130.401 184.696 130.934 185.002 131.356C185.308 131.779 185.762 132.057 186.263 132.13L195.58 133.471C196.082 133.544 196.591 133.404 196.994 133.084C197.398 132.763 197.663 132.288 197.732 131.762V131.762L201.028 106.642C201.097 106.116 200.964 105.583 200.658 105.16C200.352 104.738 199.898 104.46 199.396 104.387V104.387Z" fill="white"/>
<path d="M192.788 125.243C195.655 125.243 197.979 122.808 197.979 119.804C197.979 116.8 195.655 114.365 192.788 114.365C189.922 114.365 187.597 116.8 187.597 119.804C187.597 122.808 189.922 125.243 192.788 125.243Z" fill="#6C63FF"/>
<path d="M192.274 121.879C192.157 121.879 192.043 121.84 191.95 121.766L191.944 121.762L190.724 120.783C190.667 120.738 190.62 120.681 190.584 120.617C190.548 120.552 190.525 120.481 190.515 120.406C190.506 120.332 190.51 120.257 190.528 120.185C190.547 120.113 190.579 120.045 190.622 119.985C190.665 119.926 190.72 119.876 190.781 119.839C190.843 119.802 190.911 119.777 190.982 119.768C191.053 119.758 191.125 119.763 191.194 119.783C191.263 119.802 191.327 119.836 191.384 119.881L192.174 120.516L194.041 117.965C194.084 117.906 194.138 117.856 194.2 117.819C194.262 117.781 194.33 117.757 194.4 117.747C194.471 117.737 194.542 117.742 194.611 117.762C194.68 117.781 194.744 117.814 194.801 117.86L194.789 117.876L194.801 117.86C194.915 117.952 194.99 118.087 195.008 118.236C195.027 118.385 194.989 118.536 194.901 118.656L192.705 121.657C192.654 121.726 192.589 121.782 192.514 121.821C192.439 121.859 192.357 121.879 192.274 121.879Z" fill="white"/>
<path d="M460.438 235H64.3671C64.2184 235 64.0759 234.937 63.9708 234.827C63.8658 234.717 63.8068 234.567 63.8068 234.411C63.8068 234.255 63.8658 234.106 63.9708 233.996C64.0759 233.885 64.2184 233.823 64.3671 233.823H460.438C460.587 233.823 460.73 233.885 460.835 233.995C460.941 234.105 461 234.255 461 234.411C461 234.567 460.941 234.717 460.835 234.828C460.73 234.938 460.587 235 460.438 235Z" fill="#CCCCCC"/>
</g>
<defs>
<clipPath id="clip0">
<rect width="400" height="191" fill="white" transform="translate(61 44)"/>
</clipPath>
</defs>
</svg>
